nColumns=19
nRows=90
DataType=double
version=3
OpenSimVersion=4.1
endheader
time	ground_force_1_vx	ground_force_1_vy	ground_force_1_vz	ground_force_1_px	ground_force_1_py	ground_force_1_pz	ground_force_1_mx	ground_force_1_my	ground_force_1_mz	ground_force_2_vx	ground_force_2_vy	ground_force_2_vz	ground_force_2_px	ground_force_2_py	ground_force_2_pz	ground_force_2_mx	ground_force_2_my	ground_force_2_mz
0.43	-36.949	112.854	-9.68423	0.959799	0	-0.272424	-0	1.27487	-0	0	0	0	-0.00036159	0	-2.08816e-05	0	0	0
0.44	-42.239	266.885	-14.6295	0.938415	0	-0.292382	0	-0.233165	0	0	0	0	-0.00036159	0	-2.08816e-05	0	0	0
0.45	-36.1823	514.081	-5.97748	0.928951	0	-0.295587	0	-0.400885	0	0	0	0	-0.00036159	0	-2.08816e-05	0	0	0
0.46	-49.1323	783.676	14.0854	0.92288	0	-0.29613	-0	0.211647	-0	0	0	0	-0.00036159	0	-2.08816e-05	0	0	0
0.47	-94.5948	971.218	24.2202	0.917737	0	-0.295906	-0	0.489414	-0	0	0	0	-0.00036159	0	-2.08816e-05	0	0	0
0.48	-145.469	1060.07	6.87251	0.910653	0	-0.295242	-0	0.167652	-0	0	0	0	-0.00036159	0	-2.08816e-05	0	0	0
0.49	-173.139	1127.27	-25.0103	0.898653	0	-0.29402	0	-0.233414	0	0	0	0	-0.00036159	0	-2.08816e-05	0	0	0
0.5	-170.545	1224.3	-38.9926	0.880964	0	-0.292225	0	-0.274653	0	0	0	0	-0.00036159	0	-2.08816e-05	0	0	0
0.51	-154.693	1333.49	-36.3818	0.859841	0	-0.290259	0	-0.049798	0	0	0	0	-0.00036159	0	-2.08816e-05	0	0	0
0.52	-133.447	1419.91	-44.7957	0.838034	0	-0.288562	-0	0.085772	-0	0	0	0	-0.00036159	0	-2.08816e-05	0	0	0
0.53	-106.522	1475.05	-65.3433	0.816709	0	-0.287176	0	-0.055696	0	0	0	0	-0.00036159	0	-2.08816e-05	0	0	0
0.54	-77.0124	1504.49	-74.6569	0.795785	0	-0.285893	0	-0.393903	0	0	0	0	-0.00036159	0	-2.08816e-05	0	0	0
0.55	-48.1139	1506.19	-70.4078	0.774801	0	-0.2846	0	-0.746111	0	0	0	0	-0.00036159	0	-2.08816e-05	0	0	0
0.56	-20.2734	1476.98	-68.251	0.753313	0	-0.283388	0	-1.00148	0	0	0	0	-0.00036159	0	-2.08816e-05	0	0	0
0.57	8.61745	1421.68	-68.9605	0.731029	0	-0.28245	0	-1.19402	0	0	0	0	-0.00036159	0	-2.08816e-05	0	0	0
0.58	39.8295	1347.49	-62.3747	0.707898	0	-0.281959	0	-1.46886	0	0	0	0	-0.00036159	0	-2.08816e-05	0	0	0
0.59	70.9544	1254.48	-46.2476	0.684088	0	-0.282016	0	-1.97447	0	0	0	0	-0.00036159	0	-2.08816e-05	0	0	0
0.6	99.1697	1139.48	-29.1893	0.659834	0	-0.282607	0	-2.7615	0	0	0	0	-0.00036159	0	-2.08816e-05	0	0	0
0.61	123.158	1004.45	-16.721	0.6354	0	-0.283575	0	-3.73544	0	0	0	0	-0.00036159	0	-2.08816e-05	0	0	0
0.62	139.638	856.26	-5.78499	0.611146	0	-0.284611	0	-4.62785	0	0	0	0	-0.00036159	0	-2.08816e-05	0	0	0
0.63	143.506	702.07	4.81498	0.587266	0	-0.285326	0	-5.01156	0	0	0	0	-0.00036159	0	-2.08816e-05	0	0	0
0.64	133.739	548.748	9.86327	0.563167	0	-0.285306	0	-4.49554	0	0	0	0	-0.00036159	0	-2.08816e-05	0	0	0
0.65	115.578	404.379	6.71287	0.53705	0	-0.284006	0	-3.09009	0	0	0	0	-0.00036159	0	-2.08816e-05	0	0	0
0.66	95.8863	278.527	0.828561	0.506904	0	-0.280414	0	-1.43233	0	0	0	0	-0.00036159	0	-2.08816e-05	0	0	0
0.67	76.0085	178.56	-1.31584	0.474281	0	-0.272726	0	-0.561348	0	0	0	0	-0.00036159	0	-2.08816e-05	0	0	0
0.68	53.5423	105.934	0.520713	0.453509	0	-0.258719	0	-1.26673	0	0	0	0	-0.00036159	0	-2.08816e-05	0	0	0
0.69	31.3317	56.7184	1.99825	0.494134	0	-0.239227	0	-3.30636	0	0	0	0	-0.00036159	0	-2.08816e-05	0	0	0
0.7	0	0	0	-0.00036159	0	-2.08816e-05	0	0	0	0	0	0	-0.00036159	0	-2.08816e-05	0	0	0
0.71	0	0	0	-0.00036159	0	-2.08816e-05	0	0	0	0	0	0	-0.00036159	0	-2.08816e-05	0	0	0
0.72	0	0	0	-0.00036159	0	-2.08816e-05	0	0	0	0	0	0	-0.00036159	0	-2.08816e-05	0	0	0
0.73	0	0	0	-0.00036159	0	-2.08816e-05	0	0	0	0	0	0	-0.00036159	0	-2.08816e-05	0	0	0
0.74	0	0	0	-0.00036159	0	-2.08816e-05	0	0	0	0	0	0	-0.00036159	0	-2.08816e-05	0	0	0
0.75	0	0	0	-0.00036159	0	-2.08816e-05	0	0	0	0	0	0	-0.00036159	0	-2.08816e-05	0	0	0
0.76	0	0	0	-0.00036159	0	-2.08816e-05	0	0	0	-30.1908	95.3458	-2.13699	0.931688	0	-0.384159	-0	1.95716	-0
0.77	0	0	0	-0.00036159	0	-2.08816e-05	0	0	0	-22.6407	205.046	0.0522547	0.929802	0	-0.390866	0	-0.976304	0
0.78	0	0	0	-0.00036159	0	-2.08816e-05	0	0	0	0.0505997	366.647	6.57107	0.924327	0	-0.392275	0	-1.19199	0
0.79	0	0	0	-0.00036159	0	-2.08816e-05	0	0	0	2.31258	534.979	11.1433	0.920717	0	-0.393704	0	-0.004957	0
0.8	0	0	0	-0.00036159	0	-2.08816e-05	0	0	0	-39.3695	664.789	8.52215	0.918878	0	-0.396078	-0	0.923707	-0
0.81	0	0	0	-0.00036159	0	-2.08816e-05	0	0	0	-103.25	765.933	4.43989	0.915347	0	-0.399027	-0	0.918546	-0
0.82	0	0	0	-0.00036159	0	-2.08816e-05	0	0	0	-148.749	881.602	11.095	0.905729	0	-0.401475	-0	0.168134	-0
0.83	0	0	0	-0.00036159	0	-2.08816e-05	0	0	0	-158.511	1034.48	28.2801	0.88918	0	-0.402751	0	-0.880578	0
0.84	0	0	0	-0.00036159	0	-2.08816e-05	0	0	0	-147.298	1202.16	43.5153	0.868918	0	-0.403262	0	-1.85424	0
0.85	0	0	0	-0.00036159	0	-2.08816e-05	0	0	0	-131.194	1345.38	49.5915	0.84808	0	-0.403776	0	-2.48607	0
0.86	0	0	0	-0.00036159	0	-2.08816e-05	0	0	0	-112.682	1444.71	50.9624	0.827562	0	-0.404656	0	-2.63976	0
0.87	0	0	0	-0.00036159	0	-2.08816e-05	0	0	0	-89.7624	1502.58	57.1106	0.806914	0	-0.405824	0	-2.39061	0
0.88	0	0	0	-0.00036159	0	-2.08816e-05	0	0	0	-62.1756	1525.61	66.3869	0.785547	0	-0.407053	0	-1.99911	0
0.89	0	0	0	-0.00036159	0	-2.08816e-05	0	0	0	-29.9129	1515.82	68.1236	0.763207	0	-0.40812	0	-1.72135	0
0.9	0	0	0	-0.00036159	0	-2.08816e-05	0	0	0	4.75796	1475.65	62.3624	0.73995	0	-0.408772	0	-1.59572	0
0.91	0	0	0	-0.00036159	0	-2.08816e-05	0	0	0	40.0511	1409.04	56.961	0.715921	0	-0.408745	0	-1.38164	0
0.92	0	0	0	-0.00036159	0	-2.08816e-05	0	0	0	75.2562	1316.76	50.8188	0.691201	0	-0.407894	0	-0.757606	0
0.93	0	0	0	-0.00036159	0	-2.08816e-05	0	0	0	107.444	1198.14	36.7129	0.66596	0	-0.406267	-0	0.29687	-0
0.94	0	0	0	-0.00036159	0	-2.08816e-05	0	0	0	132.67	1058.83	16.6778	0.640693	0	-0.403994	-0	1.29409	-0
0.95	0	0	0	-0.00036159	0	-2.08816e-05	0	0	0	147.917	908.347	2.45047	0.616239	0	-0.401205	-0	1.55825	-0
0.96	0	0	0	-0.00036159	0	-2.08816e-05	0	0	0	151.471	753.796	-1.19364	0.593418	0	-0.398118	-0	0.876061	-0
0.97	0	0	0	-0.00036159	0	-2.08816e-05	0	0	0	142.901	600.825	-2.53959	0.572367	0	-0.395173	0	-0.223997	0
0.98	0	0	0	-0.00036159	0	-2.08816e-05	0	0	0	125.922	456.624	-7.02231	0.551839	0	-0.39293	0	-0.944675	0
0.99	0	0	0	-0.00036159	0	-2.08816e-05	0	0	0	106.67	327.876	-10.1243	0.528934	0	-0.391623	0	-0.973936	0
1	0	0	0	-0.00036159	0	-2.08816e-05	0	0	0	89.2629	219.348	-8.16122	0.499597	0	-0.390486	0	-0.746471	0
1.01	0	0	0	-0.00036159	0	-2.08816e-05	0	0	0	70.1885	135.136	-3.81707	0.459843	0	-0.386746	0	-1.00122	0
1.02	0	0	0	-0.00036159	0	-2.08816e-05	0	0	0	47.8372	75.7109	-0.962842	0.410826	0	-0.371957	0	-2.07887	0
1.03	0	0	0	-0.00036159	0	-2.08816e-05	0	0	0	0	0	0	-0.00036159	0	-2.08816e-05	0	0	0
1.04	0	0	0	-0.00036159	0	-2.08816e-05	0	0	0	0	0	0	-0.00036159	0	-2.08816e-05	0	0	0
1.05	0	0	0	-0.00036159	0	-2.08816e-05	0	0	0	0	0	0	-0.00036159	0	-2.08816e-05	0	0	0
1.06	0	0	0	-0.00036159	0	-2.08816e-05	0	0	0	0	0	0	-0.00036159	0	-2.08816e-05	0	0	0
1.07	0	0	0	-0.00036159	0	-2.08816e-05	0	0	0	0	0	0	-0.00036159	0	-2.08816e-05	0	0	0
1.08	0	0	0	-0.00036159	0	-2.08816e-05	0	0	0	0	0	0	-0.00036159	0	-2.08816e-05	0	0	0
1.09	0	0	0	-0.00036159	0	-2.08816e-05	0	0	0	0	0	0	-0.00036159	0	-2.08816e-05	0	0	0
1.1	0	0	0	-0.00036159	0	-2.08816e-05	0	0	0	0	0	0	-0.00036159	0	-2.08816e-05	0	0	0
1.11	-15.9128	138.224	-11.7686	0.928787	0	-0.345923	-0	0.431241	-0	0	0	0	-0.00036159	0	-2.08816e-05	0	0	0
1.12	-13.3877	333.477	-14.8299	0.929676	0	-0.35042	0	-0.223054	0	0	0	0	-0.00036159	0	-2.08816e-05	0	0	0
1.13	-20.0473	621.59	3.97161	0.928734	0	-0.350845	-0	0.135319	-0	0	0	0	-0.00036159	0	-2.08816e-05	0	0	0
1.14	-60.6632	906.51	44.472	0.927662	0	-0.350919	-0	0.457371	-0	0	0	0	-0.00036159	0	-2.08816e-05	0	0	0
1.15	-121.391	1081.16	71.5314	0.925074	0	-0.351142	-0	0.100949	-0	0	0	0	-0.00036159	0	-2.08816e-05	0	0	0
1.16	-168.773	1159.16	48.8413	0.918296	0	-0.351356	0	-0.604168	0	0	0	0	-0.00036159	0	-2.08816e-05	0	0	0
1.17	-185.565	1232.39	7.79123	0.905131	0	-0.350961	0	-1.00006	0	0	0	0	-0.00036159	0	-2.08816e-05	0	0	0
1.18	-177.544	1337.3	6.80825	0.88609	0	-0.349561	0	-0.83676	0	0	0	0	-0.00036159	0	-2.08816e-05	0	0	0
1.19	-159.219	1439.76	26.4159	0.864084	0	-0.347564	0	-0.341785	0	0	0	0	-0.00036159	0	-2.08816e-05	0	0	0
1.2	-131.903	1506.48	12.6821	0.841657	0	-0.345607	-0	0.141107	-0	0	0	0	-0.00036159	0	-2.08816e-05	0	0	0
1.21	-99.5552	1536.6	-23.1866	0.81975	0	-0.343826	-0	0.366886	-0	0	0	0	-0.00036159	0	-2.08816e-05	0	0	0
1.22	-67.1652	1541.12	-33.7563	0.798312	0	-0.342052	-0	0.191918	-0	0	0	0	-0.00036159	0	-2.08816e-05	0	0	0
1.23	-36.1721	1519.66	-22.6694	0.776952	0	-0.340329	0	-0.383267	0	0	0	0	-0.00036159	0	-2.08816e-05	0	0	0
1.24	-4.84918	1465.47	-22.138	0.755134	0	-0.338974	0	-1.17711	0	0	0	0	-0.00036159	0	-2.08816e-05	0	0	0
1.25	26.9659	1382.43	-27.966	0.732332	0	-0.338276	0	-1.96725	0	0	0	0	-0.00036159	0	-2.08816e-05	0	0	0
1.26	59.3931	1281.8	-18.1316	0.708293	0	-0.338308	0	-2.66922	0	0	0	0	-0.00036159	0	-2.08816e-05	0	0	0
1.27	90.0401	1167.78	1.9249	0.68323	0	-0.33898	0	-3.32597	0	0	0	0	-0.00036159	0	-2.08816e-05	0	0	0
1.28	115.193	1039.07	15.4796	0.657723	0	-0.340063	0	-3.96054	0	0	0	0	-0.00036159	0	-2.08816e-05	0	0	0
1.29	132.18	897.098	22.1114	0.632505	0	-0.341146	0	-4.46754	0	0	0	0	-0.00036159	0	-2.08816e-05	0	0	0
1.3	139.383	748.106	27.308	0.60831	0	-0.341697	0	-4.59578	0	0	0	0	-0.00036159	0	-2.08816e-05	0	0	0
1.31	134.612	599.306	30.72	0.585587	0	-0.341272	0	-4.04941	0	0	0	0	-0.00036159	0	-2.08816e-05	0	0	0
1.32	118.776	457.741	28.2384	0.56394	0	-0.339645	0	-2.76468	0	0	0	0	-0.00036159	0	-2.08816e-05	0	0	0
